<?xml version="1.0" encoding="iso-8859-1"?>
<!-- Uploaded to: SVG Repo, www.svgrepo.com, Generator: SVG Repo Mixer Tools -->
<svg fill="#000000" height="800px" width="800px" version="1.1" id="Layer_1" xmlns="http://www.w3.org/2000/svg" xmlns:xlink="http://www.w3.org/1999/xlink" 
	 viewBox="0 0 511.999 511.999" xml:space="preserve">
<g>
	<g>
		<path d="M493.675,443.895L349.931,300.149c23.122-32.11,35.74-70.953,35.74-110.643C385.671,85.012,300.659,0,196.164,0
			S6.658,85.012,6.658,189.506S91.67,379.013,196.164,379.013c33.348,0,65.794-8.715,94.493-25.293l146.594,146.594
			c7.535,7.535,17.554,11.684,28.212,11.684c10.658,0,20.677-4.149,28.212-11.686C509.229,484.76,509.229,459.449,493.675,443.895z
			 M474.868,481.507c-2.512,2.512-5.85,3.895-9.404,3.895c-3.553,0-6.893-1.383-9.404-3.895L302.035,327.483
			c-2.571-2.569-5.975-3.895-9.408-3.895c-2.524,0-5.064,0.717-7.296,2.184c-26.543,17.431-57.376,26.644-89.168,26.644
			c-89.829,0-162.909-73.08-162.909-162.909s73.08-162.909,162.909-162.909s162.909,73.08,162.909,162.909
			c0,37.586-13.166,74.285-37.073,103.34c-4.35,5.286-3.975,13.011,0.864,17.854l152.003,152.002
			C480.052,467.887,480.052,476.324,474.868,481.507z"/>
	</g>
</g>
<g>
	<g>
		<path d="M196.164,53.195c-75.163,0-136.312,61.149-136.312,136.312s61.15,136.312,136.312,136.312s136.312-61.149,136.312-136.312
			S271.327,53.195,196.164,53.195z M196.164,299.221c-60.496,0-109.714-49.219-109.714-109.714S135.669,79.792,196.164,79.792
			s109.714,49.218,109.714,109.714S256.662,299.221,196.164,299.221z"/>
	</g>
</g>
<g>
	<g>
		<path d="M260.891,176.208h-51.437v-50.181c0-7.344-5.955-13.299-13.299-13.299c-7.344,0-13.299,5.955-13.299,13.299v50.181
			h-50.963c-7.344,0-13.299,5.955-13.299,13.299c0,7.344,5.955,13.299,13.299,13.299h50.963v52.219
			c0,7.344,5.955,13.299,13.299,13.299c7.344,0,13.299-5.955,13.299-13.299v-52.219h51.437c7.344,0,13.299-5.955,13.299-13.299
			C274.189,182.163,268.235,176.208,260.891,176.208z"/>
	</g>
</g>
</svg>